<svg width="368" height="37" viewBox="0 0 368 37" fill="none" xmlns="http://www.w3.org/2000/svg">
<path d="M17.9083 12.3768C14.7039 12.3768 12.1703 15.1214 12.1703 18.4854C12.1703 21.8494 14.7039 24.6222 17.9083 24.6222C19.4753 24.6222 20.9204 23.9231 21.9479 22.8393L25.0069 26.1845C23.1818 28.1128 20.6717 29.2764 17.9083 29.2764C12.358 29.2764 7.87271 24.5049 7.87271 18.5839C7.87271 12.663 12.358 7.87271 17.9083 7.87271C21.0518 7.87271 23.848 9.39752 25.706 11.8138C25.706 11.8138 28.7556 14.8681 31.0029 22.1637C32.5746 28.0847 37.82 32.4526 44.06 32.4526C47.8603 32.4526 51.3087 30.8152 53.7718 28.2207L56.7323 32.1571C53.481 35.0847 49.1786 36.9145 44.4682 36.9145C39.3589 36.9145 34.7328 34.8173 31.3923 31.397C28.0753 34.8173 23.4633 36.9145 18.3634 36.9145C8.21052 36.9145 0 28.657 0 18.476C0 8.29497 8.20113 0 18.354 0C23.4539 0 28.0659 2.13473 31.3829 5.50339C34.7281 2.13473 39.3495 0 44.4588 0C49.5681 0 54.1706 2.13473 57.5065 5.50339C60.8329 2.13473 65.4542 0 70.5588 0C77.4041 0 83.3578 3.76745 86.506 9.33653L103.335 35.9621H97.5597L81.9222 11.5041C79.581 7.29563 75.2083 4.4806 70.16 4.4806C63.92 4.4806 58.6888 8.83452 57.103 14.7555C55.55 8.82982 50.2906 4.4806 44.0506 4.4806C37.8106 4.4806 32.5653 8.83452 30.9935 14.7555C29.4124 8.82982 24.1858 4.4806 17.9271 4.4806C10.4438 4.4806 4.38207 10.7159 4.38207 18.4666C4.38207 26.2174 10.4438 32.4433 17.9271 32.4433C21.1174 32.4433 24.0216 31.3126 26.3112 29.4265L28.216 27.9861C28.216 27.9861 25.1007 12.3721 17.8989 12.3721" fill="#231F1F"/>
<path d="M44.6887 12.3769C41.5405 12.3769 38.9554 15.1215 38.9554 18.4855C38.9554 21.8494 41.5405 24.6223 44.6887 24.6223C46.2885 24.6223 47.7336 23.9232 48.7705 22.8394L51.8013 26.1846C49.995 28.1129 47.4709 29.2764 44.6887 29.2764C39.1571 29.2764 34.6859 24.505 34.6859 18.584C34.6859 12.6631 39.1571 7.8728 44.6887 7.8728C47.8556 7.8728 50.6659 9.39761 52.4676 11.8139C52.4676 11.8139 55.5641 14.8682 57.7973 22.1638C59.3691 28.0847 64.6144 32.4527 70.8779 32.4527C74.6641 32.4527 78.075 30.8153 80.5381 28.2208L83.5127 32.1572C80.2895 35.0848 76.0059 36.9146 71.2298 36.9146C66.1486 36.9146 61.5413 34.8174 58.2243 31.3971C58.2243 31.3971 56.1646 29.0747 54.2082 24.3173C52.2564 19.5833 49.6244 12.3815 44.6934 12.3815" fill="#231F1F"/>
<path d="M94.2473 35.9668L79.1822 11.8138C77.3478 9.39292 74.5468 7.8728 71.408 7.8728C65.8671 7.8728 61.3724 12.6677 61.3724 18.584C61.3724 24.5003 65.8671 29.2764 71.408 29.2764C74.1621 29.2764 76.6909 28.1129 78.4878 26.1846L75.4617 22.8394C74.406 23.9232 72.9938 24.6223 71.408 24.6223C68.2552 24.6223 65.6654 21.8729 65.6654 18.4855C65.6654 15.0981 68.2552 12.3769 71.408 12.3769C73.6225 12.3769 75.3585 13.8219 76.7941 15.8393L88.8472 35.9621H94.2426L94.2473 35.9668Z" fill="#231F1F"/>
<path d="M113.212 31.1587C113.56 31.1364 113.839 30.9769 114.05 30.6874C114.187 30.5056 114.38 30.1011 114.633 29.4777L117.835 21.5925H118.236L121.449 29.1623C121.809 30.0121 122.08 30.5576 122.258 30.8062C122.436 31.0511 122.689 31.1698 123.019 31.1624V31.5298H118.355V31.1624C118.822 31.1439 119.13 31.103 119.279 31.0437C119.427 30.9843 119.501 30.8284 119.501 30.5798C119.501 30.4685 119.464 30.2978 119.39 30.0678C119.342 29.9305 119.279 29.7672 119.201 29.5742L118.833 28.7022H115.598C115.386 29.2737 115.249 29.6484 115.189 29.8191C115.063 30.1902 115 30.4574 115 30.6281C115 30.8359 115.137 30.9843 115.416 31.0771C115.579 31.129 115.828 31.155 116.154 31.1624V31.5298H113.212V31.1624V31.1587ZM118.618 28.1271L117.234 24.7911H117.111L115.813 28.1271H118.618Z" fill="#13110C"/>
<path d="M123.587 31.1774C123.839 31.118 124.021 31.0364 124.125 30.9362C124.229 30.836 124.284 30.6245 124.284 30.3054V22.9694C124.284 22.6614 124.236 22.461 124.136 22.3645C124.036 22.2717 123.854 22.1938 123.587 22.1307V21.7856H126.318V30.3054C126.318 30.6245 126.37 30.8323 126.474 30.9325C126.577 31.0327 126.759 31.1143 127.023 31.1774V31.5225H123.59V31.1774H123.587Z" fill="#13110C"/>
<path d="M127.991 27.3923H131.29V29.0584H127.991V27.3923Z" fill="#13110C"/>
<path d="M141.365 22.9766C142.355 23.9377 142.849 25.1771 142.849 26.691C142.849 28.3608 142.259 29.6818 141.083 30.6503C140.634 31.0437 140.003 31.3702 139.19 31.6262C139.398 32.142 139.728 32.565 140.185 32.8953C140.641 33.2255 141.142 33.3925 141.687 33.3925C141.877 33.3925 142.033 33.3777 142.162 33.3554C142.292 33.3294 142.456 33.2849 142.66 33.2255L142.745 33.5781C142.263 33.7747 141.728 33.9157 141.149 34.0011C140.778 34.0567 140.441 34.0864 140.136 34.0864C139.324 34.0864 138.53 33.886 137.754 33.4816C136.979 33.0771 136.44 32.4945 136.14 31.7301C136.103 31.6299 136.073 31.5743 136.055 31.5557C136.036 31.5372 135.969 31.5075 135.85 31.4704C135.242 31.2515 134.663 30.8952 134.121 30.4017C133.123 29.4295 132.622 28.2124 132.622 26.7504C132.622 25.2884 133.09 24.0416 134.021 23.0731C134.978 22.0749 136.218 21.574 137.743 21.574C139.268 21.574 140.404 22.0415 141.365 22.9803V22.9766ZM139.966 29.4072C140.181 28.7133 140.288 27.8079 140.288 26.691C140.288 25.1585 140.058 24.0008 139.602 23.2215C139.146 22.4423 138.522 22.0527 137.739 22.0527C136.648 22.0527 135.902 22.702 135.498 24.0008C135.286 24.691 135.183 25.5852 135.183 26.6873C135.183 27.7894 135.29 28.7133 135.505 29.4035C135.906 30.6837 136.648 31.322 137.739 31.322C138.83 31.322 139.561 30.6837 139.966 29.4035V29.4072Z" fill="#13110C"/>
<path d="M146.307 24.8914V29.7784C146.307 30.0678 146.341 30.283 146.411 30.4166C146.534 30.6541 146.775 30.7766 147.135 30.7766C147.365 30.7766 147.591 30.7023 147.81 30.5576C147.936 30.4797 148.096 30.3424 148.289 30.1569V26.0714C148.289 25.7671 148.229 25.5556 148.111 25.4369C147.992 25.3181 147.751 25.2476 147.391 25.2365V24.8914H150.259V30.0827C150.259 30.3795 150.315 30.5873 150.43 30.6986C150.545 30.81 150.764 30.8842 151.09 30.9101V31.2404C150.2 31.3257 149.639 31.3851 149.406 31.4259C149.172 31.4668 148.801 31.5669 148.292 31.7265V30.7766C147.951 31.0734 147.665 31.2812 147.443 31.4037C147.049 31.6189 146.637 31.7265 146.211 31.7265C145.747 31.7265 145.313 31.5781 144.912 31.2849C144.511 30.9918 144.311 30.4649 144.311 29.7079V26.0714C144.311 25.7634 144.263 25.563 144.162 25.4666C144.062 25.3738 143.873 25.2959 143.591 25.2328V24.8877H146.307V24.8914Z" fill="#13110C"/>
<path d="M151.632 31.1774C151.91 31.144 152.1 31.0772 152.207 30.9807C152.315 30.8842 152.374 30.6913 152.382 30.4092L152.396 29.9862V26.0677C152.396 25.7635 152.344 25.5594 152.241 25.4518C152.137 25.3442 151.933 25.2699 151.628 25.2328V24.8877H154.359V26.0195C154.664 25.6225 154.968 25.3033 155.268 25.0696C155.569 24.8358 155.918 24.717 156.311 24.717C156.608 24.717 156.875 24.8135 157.113 25.0028C157.35 25.192 157.469 25.4703 157.469 25.8377C157.469 26.1197 157.384 26.3497 157.22 26.5353C157.057 26.7208 156.834 26.8099 156.567 26.8099C156.263 26.8099 155.996 26.6652 155.773 26.3794C155.55 26.0937 155.395 25.949 155.306 25.949C155.113 25.949 154.92 26.0677 154.723 26.3052C154.526 26.5427 154.43 26.8804 154.43 27.3219V30.0493C154.43 30.5243 154.5 30.8211 154.638 30.9399C154.775 31.0586 155.05 31.1365 155.465 31.1736V31.5187H151.632V31.1736V31.1774Z" fill="#13110C"/>
<path d="M159.068 28.6356C159.692 28.2534 160.671 27.8712 162.003 27.489V26.4389C162.003 26.0122 161.914 25.6968 161.733 25.4927C161.551 25.2886 161.232 25.1884 160.771 25.1884C160.512 25.1884 160.3 25.2366 160.133 25.3331C159.966 25.4296 159.885 25.5483 159.885 25.6968C159.885 25.7524 159.892 25.8007 159.914 25.8378C159.933 25.8749 159.963 25.9157 160 25.9565L160.085 26.0567C160.152 26.1346 160.204 26.2237 160.245 26.3202C160.285 26.4166 160.304 26.5168 160.304 26.6244C160.304 26.8953 160.215 27.1068 160.033 27.2553C159.851 27.4037 159.643 27.4779 159.402 27.4779C159.124 27.4779 158.89 27.3963 158.693 27.233C158.497 27.0697 158.4 26.8322 158.4 26.5242C158.4 25.9714 158.66 25.5335 159.18 25.2107C159.699 24.8878 160.341 24.7283 161.098 24.7283C161.914 24.7283 162.597 24.8841 163.146 25.1995C163.692 25.5186 163.963 26.1049 163.963 26.9584V30.4464C163.963 30.5503 163.989 30.6357 164.044 30.7099C164.1 30.7841 164.159 30.8175 164.222 30.8175C164.278 30.8175 164.33 30.8064 164.375 30.7878C164.419 30.7656 164.49 30.7099 164.582 30.6171L164.801 30.9214C164.519 31.248 164.208 31.478 163.866 31.6116C163.651 31.6969 163.425 31.7378 163.183 31.7378C162.757 31.7378 162.445 31.6116 162.248 31.363C162.137 31.222 162.055 31.0142 162.003 30.7359C161.606 31.1366 161.154 31.4186 160.653 31.5819C160.348 31.6858 160.048 31.7378 159.751 31.7378C159.358 31.7378 158.99 31.6116 158.645 31.3593C158.304 31.1069 158.133 30.7173 158.133 30.1867C158.133 29.5373 158.445 29.0252 159.068 28.643V28.6356ZM161.58 30.491C161.692 30.4056 161.825 30.2758 161.981 30.0976V27.99C161.595 28.0827 161.258 28.2312 160.968 28.4352C160.475 28.7766 160.23 29.2145 160.23 29.7488C160.23 30.0642 160.3 30.3017 160.445 30.465C160.59 30.6283 160.749 30.7099 160.927 30.7099C161.161 30.7099 161.38 30.6394 161.58 30.4984V30.491Z" fill="#13110C"/>
<path d="M165.202 31.1773C165.454 31.1365 165.629 31.0734 165.722 30.988C165.863 30.8619 165.933 30.6355 165.933 30.3053V26.0714C165.933 25.7782 165.885 25.5779 165.785 25.4703C165.684 25.3626 165.491 25.2847 165.202 25.2328V24.8877H167.966V30.3609C167.966 30.6764 168.015 30.8767 168.107 30.9658C168.2 31.0548 168.378 31.1253 168.634 31.1773V31.5224H165.202V31.1773ZM166.163 21.8969C166.382 21.6779 166.645 21.5703 166.953 21.5703C167.261 21.5703 167.521 21.6779 167.736 21.8969C167.955 22.1158 168.063 22.3792 168.063 22.6872C168.063 22.9952 167.955 23.2587 167.736 23.4776C167.517 23.6965 167.258 23.8042 166.953 23.8042C166.649 23.8042 166.382 23.6965 166.163 23.4776C165.944 23.2587 165.837 22.9952 165.837 22.6872C165.837 22.3792 165.944 22.1158 166.163 21.8969Z" fill="#13110C"/>
<path d="M169.206 31.1773C169.469 31.1439 169.662 31.0734 169.785 30.962C169.907 30.8507 169.97 30.6318 169.97 30.3052V26.0713C169.97 25.7782 169.918 25.5741 169.818 25.4628C169.718 25.3478 169.514 25.2735 169.202 25.2364V24.8913H171.933V25.9266C172.163 25.5815 172.456 25.2921 172.809 25.0657C173.161 24.8394 173.555 24.7244 173.989 24.7244C174.609 24.7244 175.087 24.8839 175.429 25.203C175.77 25.5222 175.937 26.0825 175.937 26.884V30.3646C175.937 30.6874 175.993 30.8952 176.104 30.9917C176.215 31.0845 176.397 31.1476 176.657 31.181V31.5261H173.273V31.181C173.529 31.129 173.707 31.0585 173.8 30.9695C173.892 30.8804 173.941 30.68 173.941 30.3646V26.8766C173.941 26.55 173.907 26.3014 173.841 26.1381C173.729 25.8413 173.507 25.6966 173.173 25.6966C172.924 25.6966 172.694 25.7856 172.486 25.9674C172.278 26.1493 172.115 26.3311 172.004 26.5129V30.3683C172.004 30.6837 172.052 30.8841 172.145 30.9732C172.237 31.0622 172.416 31.1327 172.672 31.1847V31.5298H169.202V31.1847L169.206 31.1773Z" fill="#13110C"/>
<path d="M180.06 31.1587C180.408 31.1364 180.687 30.9769 180.898 30.6874C181.036 30.5056 181.229 30.1011 181.481 29.4777L184.683 21.5925H185.084L188.297 29.1623C188.657 30.0121 188.928 30.5576 189.106 30.8062C189.284 31.0511 189.537 31.1698 189.867 31.1624V31.5298H185.203V31.1624C185.67 31.1439 185.978 31.103 186.127 31.0437C186.275 30.9843 186.349 30.8284 186.349 30.5798C186.349 30.4685 186.312 30.2978 186.238 30.0678C186.19 29.9305 186.127 29.7672 186.049 29.5742L185.681 28.7022H182.446C182.234 29.2737 182.097 29.6484 182.037 29.8191C181.911 30.1902 181.848 30.4574 181.848 30.6281C181.848 30.8359 181.986 30.9843 182.264 31.0771C182.427 31.129 182.676 31.155 183.002 31.1624V31.5298H180.063V31.1624L180.06 31.1587ZM185.466 28.1271L184.082 24.7911H183.96L182.661 28.1271H185.466Z" fill="#13110C"/>
<path d="M193.151 24.8914V29.7784C193.151 30.0678 193.184 30.283 193.255 30.4166C193.377 30.6541 193.618 30.7766 193.978 30.7766C194.208 30.7766 194.435 30.7023 194.654 30.5576C194.78 30.4797 194.939 30.3424 195.132 30.1569V26.0714C195.132 25.7671 195.073 25.5556 194.954 25.4369C194.836 25.3181 194.594 25.2476 194.234 25.2365V24.8914H197.103V30.0827C197.103 30.3795 197.158 30.5873 197.274 30.6986C197.389 30.81 197.607 30.8842 197.934 30.9101V31.2404C197.043 31.3257 196.483 31.3851 196.249 31.4259C196.016 31.4668 195.645 31.5669 195.136 31.7265V30.7766C194.795 31.0734 194.509 31.2812 194.286 31.4037C193.893 31.6189 193.481 31.7265 193.054 31.7265C192.591 31.7265 192.156 31.5781 191.756 31.2849C191.355 30.9918 191.155 30.4649 191.155 29.7079V26.0714C191.155 25.7634 191.106 25.563 191.006 25.4666C190.906 25.3738 190.717 25.2959 190.435 25.2328V24.8877H193.151V24.8914Z" fill="#13110C"/>
<path d="M198.446 25.5221V25.1214C198.572 25.0026 198.728 24.8653 198.917 24.7058C199.166 24.4757 199.4 24.2382 199.622 23.9933C200.06 23.5146 200.454 23.0026 200.81 22.4534H201.177V24.8876H202.55V25.5221H201.177V29.8562C201.177 30.0566 201.207 30.2273 201.27 30.3646C201.363 30.5761 201.519 30.68 201.734 30.68C201.923 30.68 202.079 30.6132 202.205 30.4796C202.331 30.346 202.457 30.1605 202.584 29.9267L202.929 30.0937C202.762 30.487 202.558 30.8098 202.324 31.0585C201.912 31.4926 201.407 31.7115 200.814 31.7115C200.476 31.7115 200.183 31.6485 199.927 31.5223C199.441 31.2774 199.196 30.8358 199.192 30.1939V25.5221H198.446Z" fill="#13110C"/>
<path d="M204.253 25.7114C204.869 25.0398 205.645 24.7058 206.58 24.7058C207.515 24.7058 208.313 25.0472 208.918 25.7337C209.526 26.4202 209.831 27.2476 209.831 28.2236C209.831 29.1995 209.53 30.0121 208.929 30.7023C208.328 31.3925 207.545 31.7413 206.58 31.7413C205.615 31.7413 204.866 31.4036 204.253 30.732C203.637 30.0603 203.333 29.2217 203.333 28.2236C203.333 27.2254 203.641 26.383 204.257 25.7114H204.253ZM205.6 30.3386C205.764 30.962 206.09 31.2737 206.58 31.2737C207.07 31.2737 207.348 31.0363 207.493 30.5576C207.638 30.0789 207.712 29.2997 207.712 28.2236C207.712 27.1474 207.634 26.3719 207.482 25.8932C207.33 25.4146 207.029 25.1734 206.584 25.1734C206.098 25.1734 205.771 25.4851 205.608 26.1085C205.5 26.524 205.445 27.2328 205.445 28.2273C205.445 29.2217 205.496 29.9416 205.6 30.3461V30.3386Z" fill="#13110C"/>
<path d="M210.446 31.1773C210.71 31.1439 210.888 31.0883 210.988 31.0066C211.148 30.8805 211.226 30.6467 211.226 30.3016V26.0677C211.226 25.7634 211.17 25.5593 211.062 25.4517C210.955 25.3441 210.747 25.2699 210.443 25.2328V24.8877H213.174V25.923C213.411 25.6076 213.645 25.3664 213.871 25.192C214.287 24.8766 214.755 24.7207 215.263 24.7207C215.838 24.7207 216.287 24.858 216.606 25.1289C216.784 25.2847 216.955 25.5371 217.111 25.8896H217.211C217.482 25.5556 217.742 25.307 217.99 25.1363C218.384 24.858 218.814 24.7207 219.278 24.7207C219.783 24.7207 220.232 24.884 220.617 25.2068C221.003 25.5296 221.196 26.0417 221.196 26.7393V30.361C221.196 30.6949 221.252 30.9064 221.36 30.9992C221.467 31.092 221.656 31.1513 221.931 31.1773V31.5224H218.514V31.1773C218.777 31.1402 218.959 31.0734 219.063 30.9844C219.167 30.8916 219.219 30.6838 219.219 30.361V26.8729C219.219 26.4981 219.163 26.2087 219.052 26.0009C218.94 25.7931 218.732 25.6929 218.421 25.6929C218.172 25.6929 217.912 25.8079 217.638 26.0343C217.363 26.2606 217.226 26.4202 217.226 26.5093V30.3647C217.226 30.6801 217.274 30.8804 217.367 30.9695C217.46 31.0586 217.638 31.1291 217.894 31.181V31.5261H214.525V31.181C214.777 31.1476 214.959 31.0845 215.066 30.9955C215.174 30.9027 215.23 30.6949 215.23 30.3647V26.8766C215.23 26.5093 215.178 26.2235 215.074 26.012C214.97 25.8005 214.758 25.6966 214.432 25.6966C214.135 25.6966 213.86 25.8191 213.608 26.0603C213.356 26.3015 213.229 26.4536 213.229 26.513V30.3684C213.229 30.6838 213.274 30.8842 213.363 30.9732C213.452 31.0623 213.627 31.1328 213.89 31.1847V31.5298H210.443V31.1847L210.446 31.1773Z" fill="#13110C"/>
<path d="M223.456 25.7114C224.072 25.0398 224.848 24.7058 225.783 24.7058C226.718 24.7058 227.516 25.0472 228.12 25.7337C228.729 26.4202 229.033 27.2476 229.033 28.2236C229.033 29.1995 228.733 30.0121 228.132 30.7023C227.53 31.3925 226.748 31.7413 225.783 31.7413C224.818 31.7413 224.068 31.4036 223.456 30.732C222.84 30.0603 222.536 29.2217 222.536 28.2236C222.536 27.2254 222.844 26.383 223.46 25.7114H223.456ZM224.803 30.3386C224.966 30.962 225.293 31.2737 225.779 31.2737C226.265 31.2737 226.547 31.0363 226.692 30.5576C226.837 30.0789 226.911 29.2997 226.911 28.2236C226.911 27.1474 226.833 26.3719 226.681 25.8932C226.529 25.4108 226.232 25.1734 225.783 25.1734C225.297 25.1734 224.97 25.4851 224.807 26.1085C224.699 26.524 224.644 27.2328 224.644 28.2273C224.644 29.2217 224.696 29.9416 224.799 30.3461L224.803 30.3386Z" fill="#13110C"/>
<path d="M229.649 25.5221V25.1214C229.775 25.0026 229.931 24.8653 230.121 24.7058C230.369 24.4757 230.603 24.2382 230.826 23.9933C231.263 23.5146 231.657 23.0026 232.013 22.4534H232.38V24.8876H233.753V25.5221H232.38V29.8562C232.38 30.0566 232.41 30.2273 232.473 30.3646C232.566 30.5761 232.722 30.68 232.937 30.68C233.123 30.68 233.282 30.6132 233.408 30.4796C233.534 30.346 233.661 30.1605 233.787 29.9267L234.132 30.0937C233.961 30.487 233.761 30.8098 233.527 31.0585C233.115 31.4926 232.61 31.7115 232.017 31.7115C231.679 31.7115 231.382 31.6485 231.13 31.5223C230.644 31.2774 230.399 30.8358 230.395 30.1939V25.5221H229.649Z" fill="#13110C"/>
<path d="M234.447 31.1773C234.7 31.1365 234.874 31.0734 234.967 30.988C235.108 30.8619 235.178 30.6355 235.178 30.3053V26.0714C235.178 25.7782 235.13 25.5779 235.03 25.4703C234.93 25.3626 234.737 25.2847 234.447 25.2328V24.8877H237.212V30.3609C237.212 30.6764 237.26 30.8767 237.353 30.9658C237.445 31.0548 237.624 31.1253 237.88 31.1773V31.5224H234.447V31.1773ZM235.408 21.8969C235.627 21.6779 235.891 21.5703 236.199 21.5703C236.507 21.5703 236.766 21.6779 236.982 21.8969C237.201 22.1158 237.308 22.3792 237.308 22.6872C237.308 22.9952 237.201 23.2587 236.982 23.4776C236.763 23.6965 236.503 23.8042 236.199 23.8042C235.894 23.8042 235.627 23.6965 235.408 23.4776C235.189 23.2587 235.082 22.9952 235.082 22.6872C235.082 22.3792 235.189 22.1158 235.408 21.8969Z" fill="#13110C"/>
<path d="M242.054 24.8914V25.2365C241.798 25.2476 241.609 25.2736 241.479 25.3218C241.349 25.37 241.286 25.4702 241.286 25.6261C241.286 25.6632 241.305 25.7337 241.338 25.8339C241.371 25.9341 241.401 26.0083 241.42 26.0565L242.54 28.8247H242.589L243.59 26.3608C243.639 26.2421 243.676 26.1233 243.705 26.0009C243.735 25.8784 243.75 25.7819 243.75 25.7114C243.75 25.511 243.683 25.3812 243.546 25.3292C243.409 25.2773 243.212 25.2476 242.956 25.2402V24.8951H245.134V25.2402C244.941 25.255 244.785 25.3181 244.663 25.4257C244.54 25.537 244.422 25.7337 244.303 26.0194L241.98 31.7302H241.613L239.883 27.4554C239.761 27.1549 239.642 26.8729 239.527 26.6094C239.412 26.346 239.293 26.0899 239.164 25.8413C239.034 25.589 238.93 25.4294 238.856 25.3626C238.781 25.2958 238.644 25.255 238.447 25.2365V24.8914H242.05H242.054Z" fill="#13110C"/>
<path d="M246.622 25.6372C247.212 25.025 247.921 24.7207 248.752 24.7207C249.227 24.7207 249.672 24.8432 250.092 25.0918C250.511 25.3404 250.83 25.6855 251.056 26.1271C251.227 26.461 251.342 26.8915 251.409 27.4221C251.442 27.6707 251.457 27.8599 251.457 27.9935H247.78C247.813 28.5687 247.906 29.0696 248.062 29.4927C248.344 30.2867 248.841 30.6801 249.55 30.6801C249.887 30.6801 250.207 30.5725 250.507 30.3647C250.689 30.2385 250.919 30.0233 251.19 29.7264L251.52 29.9305C251.075 30.6615 250.559 31.1699 249.969 31.4556C249.591 31.6374 249.153 31.7302 248.659 31.7302C247.95 31.7302 247.286 31.4519 246.667 30.8916C246.047 30.3313 245.739 29.4407 245.739 28.2199C245.739 27.1141 246.032 26.2532 246.622 25.641V25.6372ZM249.683 27.4555C249.672 26.6057 249.609 26.012 249.487 25.6743C249.364 25.3367 249.119 25.166 248.752 25.166C248.385 25.166 248.117 25.3589 247.98 25.7486C247.839 26.1382 247.761 26.7059 247.743 27.4518H249.683V27.4555Z" fill="#13110C"/>
<path d="M255.542 21.7893H264.214L264.229 24.6948H263.814C263.676 23.6558 263.287 22.9508 262.645 22.5871C262.285 22.3867 261.743 22.2754 261.027 22.2569V29.8452C261.027 30.3759 261.12 30.7284 261.305 30.9028C261.491 31.0772 261.877 31.1625 262.463 31.1625V31.5299H257.327V31.1625C257.891 31.1625 258.262 31.0735 258.448 30.8991C258.633 30.7247 258.726 30.3721 258.726 29.8452V22.2569C258.021 22.2754 257.483 22.3867 257.108 22.5871C256.418 22.9619 256.029 23.6669 255.94 24.6948H255.524L255.539 21.7893H255.542Z" fill="#13110C"/>
<path d="M263.97 31.1774C264.248 31.144 264.437 31.0772 264.545 30.9807C264.652 30.8842 264.712 30.6913 264.719 30.4092L264.734 29.9862V26.0677C264.734 25.7635 264.682 25.5594 264.578 25.4518C264.474 25.3442 264.27 25.2699 263.966 25.2328V24.8877H266.697V26.0195C267.001 25.6225 267.305 25.3033 267.606 25.0696C267.907 24.8358 268.255 24.717 268.649 24.717C268.946 24.717 269.213 24.8135 269.45 25.0028C269.688 25.192 269.806 25.4703 269.806 25.8377C269.806 26.1197 269.725 26.3497 269.558 26.5353C269.391 26.7171 269.172 26.8099 268.905 26.8099C268.6 26.8099 268.333 26.6652 268.111 26.3794C267.888 26.0937 267.732 25.949 267.643 25.949C267.45 25.949 267.257 26.0677 267.061 26.3052C266.864 26.5427 266.767 26.8804 266.767 27.3219V30.0493C266.767 30.5243 266.838 30.8211 266.975 30.9399C267.112 31.0586 267.391 31.1365 267.803 31.1736V31.5187H263.97V31.1736V31.1774Z" fill="#13110C"/>
<path d="M271.406 28.6356C272.029 28.2534 273.009 27.8712 274.341 27.489V26.4389C274.341 26.0122 274.252 25.6968 274.07 25.4927C273.888 25.2886 273.569 25.1884 273.109 25.1884C272.849 25.1884 272.638 25.2366 272.471 25.3331C272.304 25.4296 272.222 25.5483 272.222 25.6968C272.222 25.7524 272.233 25.8007 272.252 25.8378C272.27 25.8749 272.3 25.9157 272.337 25.9565L272.422 26.0567C272.489 26.1346 272.541 26.2237 272.582 26.3202C272.623 26.4166 272.641 26.5168 272.641 26.6244C272.641 26.8953 272.552 27.1068 272.371 27.2553C272.189 27.4037 271.981 27.4779 271.74 27.4779C271.461 27.4779 271.228 27.3963 271.031 27.233C270.834 27.0697 270.738 26.8322 270.738 26.5242C270.738 25.9714 270.998 25.5335 271.517 25.2107C272.037 24.8878 272.679 24.7283 273.435 24.7283C274.252 24.7283 274.935 24.8841 275.484 25.1995C276.029 25.5186 276.3 26.1049 276.3 26.9584V30.4464C276.3 30.5503 276.326 30.6357 276.382 30.7099C276.437 30.7841 276.497 30.8175 276.56 30.8175C276.616 30.8175 276.668 30.8064 276.712 30.7878C276.757 30.7693 276.827 30.7099 276.92 30.6171L277.139 30.9214C276.857 31.248 276.545 31.478 276.204 31.6116C275.988 31.6969 275.762 31.7378 275.521 31.7378C275.094 31.7378 274.782 31.6116 274.586 31.363C274.474 31.222 274.393 31.0142 274.341 30.7359C273.944 31.1366 273.491 31.4186 272.99 31.5819C272.686 31.6858 272.385 31.7378 272.089 31.7378C271.695 31.7378 271.328 31.6116 270.983 31.3593C270.641 31.1069 270.471 30.7173 270.471 30.1867C270.471 29.5373 270.782 29.0252 271.406 28.643V28.6356ZM273.918 30.491C274.029 30.4056 274.163 30.2758 274.319 30.0976V27.99C273.933 28.0827 273.595 28.2312 273.306 28.4352C272.812 28.7766 272.567 29.2145 272.567 29.7488C272.567 30.0642 272.638 30.3017 272.782 30.465C272.927 30.6283 273.087 30.7099 273.265 30.7099C273.499 30.7099 273.718 30.6394 273.918 30.4984V30.491Z" fill="#13110C"/>
<path d="M278.486 25.7078C279.027 25.0473 279.677 24.7208 280.438 24.7208C280.816 24.7208 281.154 24.8136 281.451 25.0028C281.632 25.1141 281.862 25.3182 282.141 25.6077V22.9694C282.141 22.6057 282.07 22.3794 281.929 22.2903C281.788 22.2012 281.499 22.1493 281.057 22.1307V21.7856H284.159V30.079C284.159 30.3759 284.215 30.5837 284.33 30.695C284.445 30.8063 284.664 30.8806 284.991 30.9065V31.2368C284.185 31.3147 283.662 31.3778 283.428 31.4149C283.195 31.452 282.783 31.5559 282.189 31.7192V30.7692C281.918 31.0512 281.67 31.259 281.443 31.3963C281.087 31.6116 280.701 31.7192 280.289 31.7192C279.584 31.7192 278.976 31.4223 278.452 30.8249C277.933 30.2275 277.673 29.4185 277.673 28.3981C277.673 27.2589 277.944 26.3572 278.486 25.7004V25.7078ZM281.77 30.4946C282.018 30.2163 282.141 30.0234 282.141 29.9121V26.4092C282.141 26.2904 282.033 26.1197 281.822 25.8897C281.61 25.6596 281.328 25.5446 280.983 25.5446C280.471 25.5446 280.122 25.8971 279.94 26.6058C279.84 26.9843 279.792 27.5224 279.792 28.2163C279.792 28.9584 279.84 29.515 279.933 29.8898C280.107 30.5689 280.441 30.9102 280.935 30.9102C281.246 30.9102 281.525 30.7729 281.77 30.4946Z" fill="#13110C"/>
<path d="M285.551 31.1773C285.803 31.1365 285.978 31.0734 286.07 30.988C286.211 30.8619 286.282 30.6355 286.282 30.3053V26.0714C286.282 25.7782 286.234 25.5779 286.133 25.4703C286.033 25.3626 285.84 25.2847 285.551 25.2328V24.8877H288.315V30.3609C288.315 30.6764 288.364 30.8767 288.456 30.9658C288.549 31.0548 288.727 31.1253 288.983 31.1773V31.5224H285.551V31.1773ZM286.512 21.8969C286.731 21.6779 286.994 21.5703 287.302 21.5703C287.61 21.5703 287.87 21.6779 288.085 21.8969C288.304 22.1158 288.412 22.3792 288.412 22.6872C288.412 22.9952 288.304 23.2587 288.085 23.4776C287.866 23.6965 287.607 23.8042 287.302 23.8042C286.998 23.8042 286.731 23.6965 286.512 23.4776C286.293 23.2587 286.185 22.9952 286.185 22.6872C286.185 22.3792 286.293 22.1158 286.512 21.8969Z" fill="#13110C"/>
<path d="M289.555 31.1773C289.818 31.1439 290.011 31.0734 290.134 30.962C290.256 30.8507 290.319 30.6318 290.319 30.3052V26.0713C290.319 25.7782 290.267 25.5741 290.167 25.4628C290.067 25.3478 289.863 25.2735 289.551 25.2364V24.8913H292.278V25.9266C292.508 25.5815 292.802 25.2921 293.154 25.0657C293.507 24.8394 293.9 24.7244 294.334 24.7244C294.954 24.7244 295.432 24.8839 295.774 25.203C296.115 25.5222 296.286 26.0825 296.286 26.884V30.3646C296.286 30.6874 296.342 30.8952 296.453 30.9917C296.564 31.0882 296.746 31.1476 297.006 31.181V31.5261H293.622V31.181C293.878 31.129 294.056 31.0585 294.149 30.9695C294.241 30.8804 294.29 30.68 294.29 30.3646V26.8766C294.29 26.55 294.256 26.3014 294.189 26.1381C294.078 25.8413 293.855 25.6966 293.521 25.6966C293.273 25.6966 293.043 25.7856 292.835 25.9674C292.627 26.1493 292.464 26.3311 292.353 26.5129V30.3683C292.353 30.6837 292.401 30.8841 292.494 30.9732C292.586 31.0622 292.764 31.1327 293.021 31.1847V31.5298H289.551V31.1847L289.555 31.1773Z" fill="#13110C"/>
<path d="M297.922 32.5539C298.093 32.335 298.39 32.194 298.813 32.1272V32.0307C298.531 31.9231 298.327 31.8118 298.201 31.7005C297.974 31.5001 297.863 31.2292 297.863 30.8915C297.863 30.4871 298.041 30.142 298.394 29.8563C298.746 29.5705 299.095 29.3702 299.433 29.2588V29.1624C298.947 28.9657 298.549 28.6837 298.253 28.3163C297.952 27.949 297.804 27.5074 297.804 26.9879C297.804 26.3311 298.067 25.7893 298.59 25.3626C299.117 24.9359 299.826 24.7244 300.72 24.7244C301.058 24.7244 301.366 24.7578 301.648 24.8246C301.93 24.8913 302.149 24.9581 302.301 25.0286H304.201V25.7968H303.032C303.218 25.9786 303.362 26.1938 303.466 26.4387C303.566 26.6836 303.618 26.9471 303.618 27.2328C303.618 28.1345 303.188 28.7505 302.331 29.0844C301.882 29.2625 301.321 29.3516 300.65 29.3516C300.505 29.3516 300.409 29.3516 300.364 29.3442C300.319 29.3368 300.253 29.3368 300.164 29.3368C300.023 29.359 299.874 29.4332 299.722 29.5631C299.562 29.693 299.485 29.8525 299.485 30.0344C299.485 30.1791 299.525 30.2941 299.603 30.372C299.681 30.45 299.793 30.5019 299.934 30.5205C300.004 30.5316 300.152 30.539 300.383 30.5464C300.613 30.5539 300.791 30.5576 300.917 30.5576L301.852 30.5724C302.383 30.5836 302.828 30.6578 303.188 30.8025C303.878 31.0845 304.223 31.5891 304.223 32.3164C304.223 33.2552 303.707 33.8972 302.676 34.2497C302.13 34.4315 301.448 34.5243 300.62 34.5243C299.945 34.5243 299.362 34.4575 298.876 34.3276C298.071 34.1087 297.666 33.7339 297.666 33.2033C297.666 32.9955 297.752 32.784 297.922 32.5651V32.5539ZM299.407 33.7933C299.722 33.964 300.182 34.0493 300.783 34.0493C301.318 34.0493 301.759 34.0085 302.104 33.9232C302.757 33.7636 303.08 33.4705 303.08 33.04C303.08 32.7914 302.987 32.6022 302.802 32.4797C302.616 32.3536 302.279 32.2942 301.793 32.2942H299.429C299.277 32.4166 299.169 32.5205 299.106 32.6059C298.987 32.7617 298.932 32.925 298.932 33.0994C298.932 33.3963 299.091 33.63 299.407 33.797V33.7933ZM299.911 28.2718C300.052 28.6948 300.323 28.9063 300.72 28.9063C301.08 28.9063 301.329 28.7468 301.466 28.4313C301.603 28.1159 301.67 27.6521 301.67 27.0435C301.67 26.3979 301.6 25.9266 301.455 25.6298C301.31 25.3329 301.065 25.1882 300.72 25.1882C300.342 25.1882 300.086 25.3478 299.96 25.6632C299.833 25.9786 299.77 26.4387 299.77 27.0473C299.77 27.6002 299.819 28.012 299.911 28.2792V28.2718Z" fill="#13110C"/>
<path d="M315.533 21.9378C316.149 22.1604 316.491 22.2717 316.561 22.2717C316.743 22.2717 316.891 22.2012 316.999 22.0602C317.107 21.9192 317.177 21.7708 317.207 21.6187H317.608V24.988H317.24C316.895 24.257 316.539 23.6781 316.179 23.2588C315.504 22.4795 314.739 22.0899 313.889 22.0899C312.925 22.0899 312.238 22.5055 311.834 23.3367C311.429 24.1679 311.225 25.2848 311.225 26.6875C311.225 27.719 311.344 28.5688 311.585 29.233C312.03 30.4798 312.858 31.1032 314.064 31.1032C314.806 31.1032 315.492 30.8954 316.131 30.4835C316.494 30.246 316.929 29.8638 317.422 29.3369L317.852 29.6894C317.288 30.3165 316.795 30.7729 316.368 31.0549C315.608 31.5559 314.765 31.8082 313.838 31.8082C312.416 31.8082 311.225 31.3852 310.264 30.5429C309.199 29.6115 308.669 28.3536 308.669 26.7728C308.669 25.192 309.177 23.9378 310.194 22.9656C311.151 22.0565 312.324 21.6001 313.711 21.6001C314.312 21.6001 314.917 21.7114 315.533 21.9341V21.9378Z" fill="#13110C"/>
<path d="M319.786 25.7114C320.402 25.0398 321.177 24.7058 322.112 24.7058C323.047 24.7058 323.845 25.0472 324.45 25.7337C325.059 26.4202 325.363 27.2476 325.363 28.2236C325.363 29.1995 325.062 30.0121 324.461 30.7023C323.86 31.3925 323.077 31.7413 322.112 31.7413C321.148 31.7413 320.398 31.4036 319.782 30.732C319.166 30.0603 318.862 29.2217 318.862 28.2236C318.862 27.2254 319.17 26.383 319.786 25.7114ZM321.133 30.3386C321.296 30.962 321.623 31.2737 322.109 31.2737C322.595 31.2737 322.877 31.0363 323.021 30.5576C323.166 30.0789 323.24 29.2997 323.24 28.2236C323.24 27.1474 323.163 26.3719 323.01 25.8932C322.858 25.4108 322.558 25.1734 322.112 25.1734C321.626 25.1734 321.3 25.4851 321.136 26.1085C321.029 26.524 320.973 27.2328 320.973 28.2273C320.973 29.2217 321.025 29.9416 321.129 30.3461L321.133 30.3386Z" fill="#13110C"/>
<path d="M325.979 31.1773C326.242 31.1439 326.42 31.0883 326.521 31.0066C326.68 30.8805 326.758 30.6467 326.758 30.3016V26.0677C326.758 25.7634 326.703 25.5593 326.595 25.4517C326.487 25.3441 326.279 25.2699 325.975 25.2328V24.8877H328.703V25.923C328.94 25.6076 329.174 25.3664 329.4 25.192C329.816 24.8766 330.283 24.7207 330.792 24.7207C331.367 24.7207 331.816 24.858 332.135 25.1289C332.313 25.2847 332.484 25.5371 332.643 25.8896H332.744C333.014 25.5556 333.274 25.307 333.523 25.1363C333.916 24.858 334.347 24.7207 334.81 24.7207C335.315 24.7207 335.764 24.884 336.15 25.2068C336.536 25.5296 336.729 26.0417 336.729 26.7393V30.361C336.729 30.6949 336.784 30.9064 336.892 30.9992C337 31.092 337.189 31.1513 337.464 31.1773V31.5224H334.046V31.1773C334.309 31.1402 334.491 31.0734 334.595 30.9844C334.699 30.8953 334.751 30.6838 334.751 30.361V26.8729C334.751 26.4981 334.695 26.2087 334.584 26.0009C334.473 25.7931 334.265 25.6929 333.953 25.6929C333.705 25.6929 333.441 25.8079 333.17 26.0343C332.896 26.2606 332.758 26.4202 332.758 26.5093V30.3647C332.758 30.6801 332.807 30.8804 332.899 30.9695C332.992 31.0586 333.17 31.1291 333.426 31.181V31.5261H330.057V31.181C330.309 31.1476 330.491 31.0845 330.599 30.9955C330.706 30.9027 330.762 30.6949 330.762 30.3647V26.8766C330.762 26.5093 330.71 26.2235 330.606 26.012C330.502 25.8005 330.291 25.6966 329.964 25.6966C329.667 25.6966 329.393 25.8191 329.14 26.0603C328.888 26.3015 328.762 26.4536 328.762 26.513V30.3684C328.762 30.6838 328.806 30.8842 328.896 30.9732C328.985 31.0623 329.159 31.1328 329.422 31.1847V31.5298H325.975V31.1847L325.979 31.1773Z" fill="#13110C"/>
<path d="M338.005 34.1458C338.313 34.1124 338.525 34.0419 338.64 33.9306C338.751 33.8193 338.81 33.6115 338.81 33.3072V26.0676C338.81 25.7634 338.759 25.5593 338.651 25.4554C338.547 25.3478 338.343 25.2736 338.042 25.2327V24.8876H340.792V25.8376C340.989 25.511 341.182 25.2661 341.367 25.114C341.705 24.8431 342.135 24.7058 342.662 24.7058C343.415 24.7058 344.043 24.9878 344.543 25.5556C345.044 26.1233 345.293 26.9693 345.293 28.0937C345.293 29.1401 345.026 30.0047 344.488 30.6912C343.95 31.3776 343.297 31.7227 342.529 31.7227C342.135 31.7227 341.76 31.6077 341.412 31.3776C341.222 31.2552 341.029 31.0808 340.829 30.8581V32.0752C340.833 32.7209 340.84 33.0846 340.844 33.1662C340.877 33.5447 340.974 33.8081 341.137 33.9454C341.3 34.0864 341.571 34.1681 341.95 34.1903V34.4872H338.009V34.1421L338.005 34.1458ZM343.015 29.8896C343.115 29.5112 343.163 28.962 343.163 28.2495C343.163 27.4257 343.089 26.7652 342.937 26.2754C342.788 25.7856 342.48 25.5407 342.024 25.5407C341.716 25.5407 341.438 25.678 341.193 25.9489C340.948 26.2198 340.825 26.4164 340.825 26.5389V30.0418C340.825 30.1828 340.94 30.3646 341.174 30.5873C341.408 30.8099 341.668 30.9212 341.957 30.9212C342.477 30.9212 342.829 30.5761 343.011 29.8859L343.015 29.8896Z" fill="#13110C"/>
<path d="M347.059 28.6356C347.683 28.2534 348.662 27.8712 349.995 27.489V26.4389C349.995 26.0122 349.905 25.6968 349.724 25.4927C349.542 25.2886 349.223 25.1884 348.763 25.1884C348.503 25.1884 348.291 25.2366 348.124 25.3331C347.957 25.4296 347.876 25.5483 347.876 25.6968C347.876 25.7524 347.887 25.8007 347.905 25.8378C347.924 25.8749 347.954 25.9157 347.991 25.9565L348.076 26.0567C348.143 26.1346 348.195 26.2237 348.236 26.3202C348.276 26.4166 348.295 26.5168 348.295 26.6244C348.295 26.8953 348.206 27.1068 348.024 27.2553C347.842 27.4037 347.635 27.4779 347.393 27.4779C347.115 27.4779 346.881 27.3963 346.685 27.233C346.488 27.0697 346.391 26.8322 346.391 26.5242C346.391 25.9714 346.651 25.5335 347.171 25.2107C347.69 24.8878 348.332 24.7283 349.089 24.7283C349.905 24.7283 350.588 24.8841 351.137 25.1995C351.683 25.5186 351.954 26.1049 351.954 26.9584V30.4464C351.954 30.5503 351.98 30.6357 352.035 30.7099C352.091 30.7841 352.15 30.8175 352.214 30.8175C352.269 30.8175 352.321 30.8064 352.366 30.7878C352.41 30.7693 352.481 30.7099 352.573 30.6171L352.792 30.9214C352.51 31.248 352.199 31.478 351.857 31.6116C351.642 31.6969 351.416 31.7378 351.175 31.7378C350.748 31.7378 350.436 31.6116 350.239 31.363C350.128 31.222 350.046 31.0142 349.995 30.7359C349.597 31.1366 349.145 31.4186 348.644 31.5819C348.34 31.6858 348.039 31.7378 347.742 31.7378C347.349 31.7378 346.981 31.6116 346.636 31.3593C346.295 31.1069 346.124 30.7173 346.124 30.1867C346.124 29.5373 346.436 29.0252 347.059 28.643V28.6356ZM349.571 30.491C349.683 30.4056 349.816 30.2758 349.972 30.0976V27.99C349.586 28.0827 349.249 28.2312 348.959 28.4352C348.466 28.7766 348.221 29.2145 348.221 29.7488C348.221 30.0642 348.291 30.3017 348.436 30.465C348.581 30.6283 348.74 30.7099 348.918 30.7099C349.152 30.7099 349.371 30.6394 349.571 30.4984V30.491Z" fill="#13110C"/>
<path d="M353.193 31.1773C353.457 31.1439 353.65 31.0734 353.772 30.962C353.894 30.8507 353.958 30.6318 353.958 30.3052V26.0713C353.958 25.7782 353.906 25.5741 353.805 25.4628C353.705 25.3478 353.501 25.2735 353.189 25.2364V24.8913H355.917V25.9266C356.147 25.5815 356.44 25.2921 356.792 25.0657C357.145 24.8394 357.538 24.7244 357.972 24.7244C358.592 24.7244 359.071 24.8839 359.412 25.203C359.754 25.5222 359.924 26.0825 359.924 26.884V30.3646C359.924 30.6874 359.98 30.8952 360.091 30.9917C360.203 31.0882 360.384 31.1476 360.644 31.181V31.5261H357.26V31.181C357.516 31.129 357.694 31.0585 357.787 30.9695C357.88 30.8804 357.928 30.68 357.928 30.3646V26.8766C357.928 26.55 357.895 26.3014 357.828 26.1381C357.716 25.8413 357.494 25.6966 357.16 25.6966C356.911 25.6966 356.681 25.7856 356.473 25.9674C356.266 26.1493 356.102 26.3311 355.991 26.5129V30.3683C355.991 30.6837 356.039 30.8841 356.132 30.9732C356.225 31.0622 356.403 31.1327 356.659 31.1847V31.5298H353.189V31.1847L353.193 31.1773Z" fill="#13110C"/>
<path d="M361.275 32.6542C361.475 32.4983 361.717 32.4241 361.999 32.4241C362.244 32.4241 362.444 32.4909 362.6 32.6282C362.756 32.7655 362.837 32.9251 362.837 33.1143L362.804 33.4297C362.804 33.4891 362.83 33.5485 362.878 33.5967C362.926 33.6486 362.989 33.6746 363.064 33.6746C363.312 33.6746 363.546 33.4779 363.761 33.0883C363.895 32.8471 364.091 32.3759 364.347 31.6708L362.641 27.4518C362.518 27.1512 362.399 26.8692 362.284 26.6057C362.169 26.3423 362.051 26.0862 361.921 25.8376C361.791 25.5853 361.687 25.4257 361.613 25.359C361.538 25.2922 361.401 25.2513 361.205 25.2328V24.8877H364.804V25.2328C364.578 25.2365 364.396 25.2625 364.251 25.3107C364.106 25.359 364.036 25.4591 364.036 25.615C364.036 25.6484 364.043 25.6929 364.062 25.7486C364.077 25.8042 364.114 25.9044 364.169 26.0529L365.316 28.8878H365.386L366.333 26.3571C366.381 26.2161 366.418 26.0937 366.448 25.9861C366.477 25.8822 366.492 25.7894 366.492 25.7078C366.492 25.5074 366.425 25.3775 366.292 25.3256C366.158 25.2736 365.962 25.2439 365.698 25.2365V24.8914H367.88V25.2365C367.691 25.2513 367.539 25.2996 367.42 25.3886C367.301 25.474 367.179 25.6855 367.049 26.0195L364.897 31.7673C364.477 32.8286 364.117 33.5485 363.817 33.9269C363.516 34.3054 363.045 34.4984 362.399 34.4984C361.932 34.4984 361.576 34.3834 361.331 34.1496C361.086 33.9158 360.963 33.6635 360.963 33.3852C360.963 33.0586 361.064 32.8137 361.268 32.6616L361.275 32.6542Z" fill="#13110C"/>
<path d="M124.258 10.8017C124.11 11.08 123.616 12.6162 123.383 12.9168H115.52C114.28 12.9168 113 11.978 113 10.7794C113 9.58089 113.727 6.82755 114.217 6.82755C114.581 6.82755 113.642 9.09107 114.325 9.90372C114.815 10.5011 115.479 10.7794 116.31 10.7794H123.082C123.383 10.5234 123.126 9.98906 122.952 9.54007C122.822 9.17642 122.418 8.68661 122.332 8.51592C122.332 8.51592 123.123 7.15039 123.423 6.61605C123.765 7.04278 124.492 8.08919 124.492 9.03171C124.492 9.60686 124.258 10.8054 124.258 10.8054V10.8017ZM120.243 5.41749C120.136 5.41749 118.77 4.62712 118.685 4.60485C118.622 4.66793 117.935 5.28762 117.917 5.37296C117.445 5.26535 116.507 4.6902 116.358 4.56032C117.49 3.25787 117.171 3.72542 117.49 3.38403C117.683 3.59925 118.622 4.17441 118.878 4.17441C119.026 4.17441 119.605 3.49164 119.798 3.38403L121.356 4.21894C120.993 4.6902 120.332 5.41378 120.247 5.41378L120.243 5.41749Z" fill="#13110C"/>
<path d="M127.182 13.4511L126.243 5.16146C126.243 4.86089 127.268 3.28013 127.694 2.61963C127.865 3.60296 128.251 7.21347 128.251 9.75529C128.251 11.7628 127.609 12.876 127.182 13.4511Z" fill="#13110C"/>
<path d="M130.945 17.2733C129.984 17.2733 126.436 15.8855 126.436 15.4773C126.436 14.9207 127.761 15.9263 129.086 15.9263C130.411 15.9263 133.657 13.1507 133.657 11.8668C133.657 11.2063 132.014 9.85931 131.605 9.55875C131.735 9.25818 132.181 7.89264 132.333 7.42139C133.082 7.8073 135.216 9.66265 134.47 12.7833C134.214 13.8928 132.997 17.2696 130.945 17.2696V17.2733Z" fill="#13110C"/>
<path d="M137.053 12.9169L136.218 3.62528C136.559 3.23937 137.201 2.44899 137.583 2C137.669 3.49541 138.351 10.1375 138.418 10.2897C138.418 10.2897 138.44 10.5235 138.526 10.6311C138.611 10.7387 138.953 10.7795 139.123 10.7795H139.873V12.9169H137.053Z" fill="#13110C"/>
<path d="M139.446 12.9169V10.7795H141.431V12.9169H139.446Z" fill="#13110C"/>
<path d="M140.789 12.9169V10.7795H142.775V12.9169H140.789Z" fill="#13110C"/>
<path d="M142.136 12.9169V10.7795H144.122V12.9169H142.136Z" fill="#13110C"/>
<path d="M143.483 12.9169V10.7795H145.468V12.9169H143.483Z" fill="#13110C"/>
<path d="M144.827 12.9169V10.7795H146.812V12.9169H144.827Z" fill="#13110C"/>
<path d="M146.174 12.9169V10.7795H148.159V12.9169H146.174Z" fill="#13110C"/>
<path d="M147.517 12.9169V10.7795H149.502V12.9169H147.517Z" fill="#13110C"/>
<path d="M148.864 12.9169V10.7795H150.849V12.9169H148.864Z" fill="#13110C"/>
<path d="M150.211 12.9169V10.7795H152.196V12.9169H150.211Z" fill="#13110C"/>
<path d="M151.554 12.9169V10.7795H153.539V12.9169H151.554Z" fill="#13110C"/>
<path d="M152.901 12.9169V10.7795H154.886V12.9169H152.901Z" fill="#13110C"/>
<path d="M160.185 12.917C159.009 12.917 158.712 11.7852 158.627 11.5069C158.627 11.5069 158.029 12.5978 157.836 12.917H154.396V10.7796H158.371L158.415 10.7165C158.608 10.2898 158.63 8.7313 158.63 8.7313C158.63 8.7313 159.784 7.21362 159.911 7.21362C160.037 7.21362 159.888 8.40846 159.718 9.56249C159.61 10.2898 160.36 10.7796 160.935 10.7796H161.532V12.917H160.185ZM159.224 17.1694C159.139 17.1694 157.751 16.2937 157.706 16.2714C157.643 16.3345 156.938 17.0173 156.894 17.1249C156.423 16.9542 155.506 16.3753 155.354 16.2046C156.463 14.8168 156.166 15.3066 156.463 14.9022C156.656 15.1359 157.64 15.7779 157.851 15.7779C158 15.7779 158.578 15.0098 158.79 14.8576L160.348 15.8187C159.963 16.3753 159.343 17.1657 159.217 17.1657L159.224 17.1694Z" fill="#13110C"/>
<path d="M166.701 12.9168C165.803 12.9168 165.183 12.9613 164.972 12.7015C164.757 12.4678 164.671 12.1672 164.671 12.1672L164.564 12.2934C164.285 12.6347 163.881 12.913 163.625 12.913H161.232V10.7757H164.285C164.946 10.7757 164.883 9.81461 164.883 9.62166C164.991 9.36562 165.844 8.4899 166.486 7.82568C166.486 8.08172 166.356 8.70141 166.167 9.28027C165.933 9.96304 165.74 10.3044 165.74 10.4751C165.74 10.7312 166.616 10.7757 166.701 10.7757C167.321 10.7757 166.831 10.7757 166.831 10.7757V12.913C166.831 12.913 167.28 12.913 166.701 12.913V12.9168Z" fill="#13110C"/>
<path d="M173.28 12.9169C173.28 12.9169 172.939 12.4679 172.768 12.2341C172.661 12.4679 172.49 12.7462 172.49 12.9391L169.714 12.9169C169.651 12.8315 169.436 12.3825 169.351 12.3825C169.288 12.3825 169.072 12.7462 168.879 12.9169H166.701V10.7795C167.855 10.7795 169.373 10.7164 169.373 10.7164C169.373 10.7164 169.202 9.75537 169.373 9.49933C169.503 9.30638 170.464 8.25996 170.913 7.89631C170.72 8.57908 170.208 10.3305 170.338 10.7164L170.36 10.7795H172.39C172.39 10.7795 172.367 9.81845 172.089 9.41399C172.026 9.36946 172.943 8.02619 173.436 7.55493V8.7943C173.436 9.26556 173.265 9.97059 173.18 10.5235C173.158 10.6311 173.288 10.7795 173.458 10.7795H174.015V12.9169H173.288H173.28Z" fill="#13110C"/>
<path d="M178.234 6.6125L178.212 6.63477L178.234 6.65703C178.234 7.08376 178.638 10.0338 178.638 10.0338C178.724 10.8019 178.167 12.3826 178.189 12.6832C178.275 12.8316 177.74 12.917 177.507 12.917H173.555V10.7796H177.291C177.718 10.416 176.501 5.69596 176.479 5.18389L176.457 5.13936C176.457 5.13936 175.837 4.69037 175.729 4.58276C175.922 4.19684 176.753 2.63835 177.095 2.23389C177.095 2.55301 177.18 3.02427 177.499 3.2803C178.29 3.77012 179.295 4.43433 179.741 4.62728C179.421 5.05401 178.416 6.35647 178.223 6.6125H178.234Z" fill="#13110C"/>
<path d="M182.913 13.4511L181.974 5.16146C181.974 4.86089 182.999 3.28013 183.425 2.61963C183.596 3.60296 183.982 7.21347 183.982 9.75529C183.982 11.7628 183.34 12.876 182.913 13.4511Z" fill="#13110C"/>
<path d="M193.83 12.2749C193.596 12.4679 191.971 13.1098 191.481 13.1098C190.732 13.1098 189.151 13.1321 189.151 12.0003C189.129 10.8463 190.027 9.5661 190.817 8.2822C191.374 7.40648 191.926 6.63836 192.335 6.18937C192.379 6.18937 193.659 7.23578 194.342 7.9C195.196 8.69037 194.984 9.75906 194.832 10.1635C194.446 11.2099 194.427 11.7665 193.826 12.2786L193.83 12.2749ZM193.444 4.84239C193.359 4.84239 191.886 4.00748 191.8 3.98893C191.778 4.09654 191.01 4.73478 190.988 4.82383C190.498 4.69396 189.492 4.14107 189.344 3.92585C190.52 2.60113 190.219 3.09094 190.52 2.731C190.776 2.94622 191.782 3.54365 191.993 3.54365C192.164 3.54365 192.761 2.79409 192.999 2.70874L194.624 3.5622C194.26 4.1188 193.555 4.84239 193.448 4.84239H193.444ZM191.841 8.30446C191.648 8.5605 190.646 9.9483 190.646 10.1635C190.646 10.9094 191.158 11.0392 191.778 11.0392C192.698 11.0392 193.83 10.824 193.915 10.824C193.915 10.0967 192.015 8.30446 191.845 8.30446H191.841Z" fill="#13110C"/>
<path d="M197.077 17.2733C196.116 17.2733 192.568 15.8855 192.568 15.4773C192.568 14.9207 193.893 15.9263 195.218 15.9263C196.543 15.9263 199.789 13.1507 199.789 11.8668C199.789 11.2063 198.146 9.85931 197.737 9.55875C197.867 9.25818 198.313 7.89264 198.465 7.42139C199.214 7.8073 201.348 9.66265 200.602 12.7833C200.346 13.8928 199.129 17.2696 197.077 17.2696V17.2733Z" fill="#13110C"/>
<path d="M203.185 12.9169L202.35 3.62528C202.691 3.23937 203.333 2.44899 203.715 2C203.801 3.49541 204.483 10.1375 204.55 10.2897C204.55 10.2897 204.572 10.5235 204.658 10.6311C204.743 10.7387 205.085 10.7795 205.255 10.7795H206.005V12.9169H203.185Z" fill="#13110C"/>
<path d="M205.578 12.9169V10.7795H207.563V12.9169H205.578Z" fill="#13110C"/>
<path d="M206.921 12.9169V10.7795H208.907V12.9169H206.921Z" fill="#13110C"/>
<path d="M208.268 12.9169V10.7795H210.254V12.9169H208.268Z" fill="#13110C"/>
<path d="M209.612 12.9169V10.7795H211.597V12.9169H209.612Z" fill="#13110C"/>
<path d="M210.958 12.9169V10.7795H212.944V12.9169H210.958Z" fill="#13110C"/>
<path d="M212.306 12.9169V10.7795H214.291V12.9169H212.306Z" fill="#13110C"/>
<path d="M213.649 12.9169V10.7795H215.634V12.9169H213.649Z" fill="#13110C"/>
<path d="M214.996 12.9169V10.7795H216.981V12.9169H214.996Z" fill="#13110C"/>
<path d="M216.339 12.9169V10.7795H218.324V12.9169H216.339Z" fill="#13110C"/>
<path d="M217.686 12.9169V10.7795H219.671V12.9169H217.686Z" fill="#13110C"/>
<path d="M219.033 12.9169V10.7795H221.018V12.9169H219.033Z" fill="#13110C"/>
<path d="M231.571 12.9169L231.338 11.3139C230.696 11.2285 229.95 11.2508 228.774 11.2508C227.427 11.2508 225.998 12.9169 224.629 12.9169H220.484V10.7795H225.033C225.972 10.7795 227.66 10.0337 227.66 9.90379C227.274 9.75536 224.926 8.89819 224.436 8.92046C223.003 9.0058 223.026 9.54014 222.707 9.54014C222.599 9.54014 223.753 7.08366 225.208 6.93524C227.004 6.76454 228.091 7.95939 230.08 8.49373C231.638 8.89819 232.815 9.05033 233.39 9.05033C233.304 9.1765 232.9 10.5235 232.815 10.7795H234.418V12.9169H231.575H231.571ZM226.87 17.3586C226.87 17.3586 225.226 16.5459 225.226 16.3752C225.226 16.2676 226.402 15.095 226.529 15.095C226.614 15.095 227.983 15.993 228.154 15.993C228.261 15.993 227.044 17.3586 226.874 17.3586H226.87Z" fill="#13110C"/>
<path d="M240.221 12.9168C239.045 12.9168 238.726 11.785 238.663 11.5067C238.663 11.5067 238.043 12.5977 237.872 12.9168H234.069V10.7794H238.407L238.451 10.7163C238.666 10.3119 238.666 8.73111 238.666 8.73111C238.666 8.73111 239.564 7.6847 239.946 7.21344C239.946 7.6179 239.946 8.40828 239.754 9.56231C239.646 10.2896 240.351 10.7794 240.971 10.7794H241.249V12.9168H240.225H240.221ZM239.067 5.18369C238.959 5.18369 237.401 4.33023 237.356 4.30797C237.293 4.39331 236.503 5.07608 236.481 5.16143C235.946 5.03526 234.9 4.39331 234.77 4.24117C236.05 2.83111 235.646 3.36545 236.009 2.96099C236.243 3.21702 237.29 3.81444 237.527 3.81444C237.698 3.81444 238.34 3.04633 238.574 2.93872L240.303 3.87753C239.898 4.3896 239.149 5.17998 239.063 5.17998L239.067 5.18369Z" fill="#13110C"/>
<path d="M245.65 6.6125L245.628 6.63477L245.65 6.65703C245.65 7.08376 246.054 10.0338 246.054 10.0338C246.14 10.8019 245.583 12.3826 245.605 12.6832C245.691 12.8316 245.156 12.917 244.922 12.917H240.971V10.7796H244.711C245.138 10.416 243.921 5.69596 243.898 5.18389L243.876 5.13936C243.876 5.13936 243.256 4.69037 243.149 4.58276C243.342 4.19684 244.173 2.63835 244.514 2.23389C244.514 2.55301 244.6 3.02427 244.919 3.2803C245.709 3.77012 246.715 4.43433 247.164 4.62728C246.845 5.05401 245.839 6.35647 245.646 6.6125H245.65Z" fill="#13110C"/>
<path d="M261.606 12.9169V13.1952C261.606 13.4735 260.923 15.5664 260.326 16.0784C259.428 16.8911 257.249 17.4254 256.244 17.4254C254.173 17.4254 252.4 16.635 252.4 14.7129C252.4 12.557 253.531 10.056 254.043 10.056C254.492 10.056 253.446 11.4215 253.446 12.6832C253.446 14.8836 255.88 15.2472 256.652 15.2472C257.806 15.2472 260.155 14.7129 260.496 14.0524C260.496 13.6479 260.24 11.6813 259.216 10.2712C259.365 9.9929 259.858 9.18026 260.433 8.30454C261.224 9.65152 261.565 10.7833 262.589 10.7833H263.06V12.9206H261.606V12.9169ZM256.459 6.93529L255.134 5.88888L256.459 4.60498L257.869 5.86661C257.869 5.91114 256.585 6.93529 256.459 6.93529Z" fill="#13110C"/>
<path d="M262.522 12.9169V10.7795H264.508V12.9169H262.522Z" fill="#13110C"/>
<path d="M263.869 12.9169V10.7795H265.855V12.9169H263.869Z" fill="#13110C"/>
<path d="M265.213 12.9169V10.7795H267.198V12.9169H265.213Z" fill="#13110C"/>
<path d="M266.56 12.9169V10.7795H268.545V12.9169H266.56Z" fill="#13110C"/>
<path d="M267.906 12.9169V10.7795H269.892V12.9169H267.906Z" fill="#13110C"/>
<path d="M269.25 12.9169V10.7795H271.235V12.9169H269.25Z" fill="#13110C"/>
<path d="M270.597 12.9169V10.7795H272.582V12.9169H270.597Z" fill="#13110C"/>
<path d="M271.94 12.9169V10.7795H273.925V12.9169H271.94Z" fill="#13110C"/>
<path d="M273.287 12.9169V10.7795H275.272V12.9169H273.287Z" fill="#13110C"/>
<path d="M274.634 12.9169V10.7795H276.619V12.9169H274.634Z" fill="#13110C"/>
<path d="M275.977 12.9169V10.7795H277.963V12.9169H275.977Z" fill="#13110C"/>
<path d="M283.989 10.8426C283.881 11.3547 283.773 12.4011 283.647 12.9131H277.473V10.7758H282.965L282.92 10.6051C282.772 10.2414 282.193 8.89447 281.595 8.23396C281.874 7.80724 282.363 6.95006 282.664 6.43799C282.983 6.80164 283.818 8.01874 284.03 9.0429C284.178 9.74793 283.985 10.8389 283.985 10.8389L283.989 10.8426ZM281.981 17.4662C281.874 17.4662 280.378 16.5459 280.337 16.5274C280.315 16.6127 279.525 17.34 279.502 17.4253C279.013 17.2547 278.029 16.6572 277.859 16.4643C279.076 14.9911 278.734 15.5032 279.053 15.0987C279.246 15.3548 280.315 16.019 280.527 16.019C280.653 16.019 281.295 15.2064 281.488 15.0802L283.154 16.0858C282.749 16.6609 282.063 17.4736 281.978 17.4736L281.981 17.4662Z" fill="#13110C"/>
<path d="M291.766 12.917L290.998 12.9392C290.72 12.9392 290.423 12.8316 290.122 12.4494C289.93 13.9894 288.03 17.2548 286.234 17.2548C285.336 17.2548 282.026 15.7371 282.026 15.3549C282.026 14.8428 283.202 15.8447 284.185 15.8447C284.976 15.8447 285.636 15.5256 286.835 14.6276C287.54 14.071 289.013 12.7685 289.013 12.0227C289.013 11.6368 287.944 10.249 287.666 9.95212C287.859 9.65156 288.519 8.45671 288.776 8.05225C289.458 8.84262 290.208 10.787 291.447 10.787H292.022V12.9244H291.766V12.917Z" fill="#13110C"/>
<path d="M291.659 12.9169V10.7795H294.672V10.6311C294.672 10.3305 294.609 10.0114 294.906 9.64777C295.418 9.07261 297.618 6.54934 299.284 6.54934C300.267 6.54934 300.65 8.74978 300.308 9.39173C300.223 9.54016 299.689 10.4159 299.581 10.5866L299.473 10.7795H301.117V12.9169H291.655H291.659ZM298.561 5.30996L296.746 4.3489C296.598 4.58267 295.978 4.99084 295.785 5.26915C295.295 5.09845 294.505 4.6272 294.204 4.43424C295.358 3.13179 295.102 3.51399 295.358 3.2394C295.763 3.5177 296.661 4.09286 296.961 4.09286C297.262 4.09286 297.815 3.38783 298.071 3.17261L299.715 4.09286C299.288 4.58267 298.561 5.30996 298.561 5.30996ZM297.707 8.64217C297.343 8.64217 295.911 9.13198 295.911 9.71085C295.911 10.2897 296.872 10.8203 297.555 10.8203C298.538 10.8203 298.965 10.286 298.965 10.286C298.965 9.5587 298.538 8.64217 297.703 8.64217H297.707Z" fill="#13110C"/>
<path d="M305.329 6.6125L305.307 6.63477L305.329 6.65703C305.329 7.08376 305.733 10.0338 305.733 10.0338C305.819 10.8019 305.262 12.3826 305.284 12.6832C305.37 12.8316 304.835 12.917 304.602 12.917H300.65V10.7796H304.386C304.813 10.416 303.596 5.69596 303.574 5.18389L303.551 5.13936C303.551 5.13936 302.932 4.69037 302.824 4.58276C303.017 4.19684 303.848 2.63835 304.19 2.23389C304.19 2.55301 304.275 3.02427 304.594 3.2803C305.385 3.77012 306.39 4.43433 306.835 4.62728C306.516 5.05401 305.511 6.35647 305.318 6.6125H305.329Z" fill="#13110C"/>
<path d="M310.008 13.4511L309.069 5.16146C309.069 4.86089 310.093 3.28013 310.524 2.61963C310.694 3.60296 311.08 7.21347 311.08 9.75529C311.08 11.7628 310.438 12.876 310.012 13.4511H310.008Z" fill="#13110C"/>
<path d="M319.789 4.15582C319.682 4.15582 318.272 3.38771 318.209 3.34318C318.186 3.42852 317.441 4.02595 317.418 4.11129C316.928 4.00368 316.008 3.42852 315.86 3.27639C317.014 1.9962 316.65 2.48601 316.969 2.08154C317.203 2.31532 318.186 2.91645 318.379 2.91645C318.55 2.91645 319.107 2.23368 319.34 2.08154L320.921 2.95727C320.517 3.42852 319.853 4.15211 319.789 4.15211V4.15582ZM322.461 12.9131C321.478 12.9131 321.456 11.4399 321.285 10.6273L321.263 10.5197L321.133 10.5642C320.513 10.9278 320.45 12.2748 319.745 12.2748C319.34 12.2748 317.225 11.6329 316.454 11.6329C316.454 11.0763 317.181 9.04651 317.693 8.5567C318.357 7.91475 319.916 7.23198 320.468 6.76073C320.468 6.48242 320.276 6.33399 320.276 6.07796C320.405 5.90727 320.917 5.11689 321.366 4.2189H321.389C321.689 5.28758 322.224 10.1152 322.394 10.4158C322.65 10.8202 322.673 10.7794 323.162 10.7794H323.76V12.9168H322.457L322.461 12.9131ZM320.732 7.44349C320.242 7.80714 320.391 8.0001 320.049 8.48991C319.6 9.15041 318.513 9.28028 318.212 9.58085C318.854 9.83689 318.684 9.75154 319.645 9.92223C320.049 10.0076 320.821 10.0298 321.14 9.98531L321.162 9.75155C321.162 9.28029 320.862 7.5511 320.736 7.44349H320.732Z" fill="#13110C"/>
<path d="M323.337 12.9169V10.7795H325.322V12.9169H323.337Z" fill="#13110C"/>
<path d="M324.68 12.9169V10.7795H326.665V12.9169H324.68Z" fill="#13110C"/>
<path d="M326.027 12.9169V10.7795H328.012V12.9169H326.027Z" fill="#13110C"/>
<path d="M327.374 12.9169V10.7795H329.359V12.9169H327.374Z" fill="#13110C"/>
<path d="M328.717 12.9169V10.7795H330.703V12.9169H328.717Z" fill="#13110C"/>
<path d="M330.064 12.9169V10.7795H332.05V12.9169H330.064Z" fill="#13110C"/>
<path d="M331.408 12.9169V10.7795H333.393V12.9169H331.408Z" fill="#13110C"/>
<path d="M332.755 12.9169V10.7795H334.74V12.9169H332.755Z" fill="#13110C"/>
<path d="M334.102 12.9169V10.7795H336.087V12.9169H334.102Z" fill="#13110C"/>
<path d="M335.445 12.9169V10.7795H337.43V12.9169H335.445Z" fill="#13110C"/>
<path d="M336.792 12.9169V10.7795H338.777V12.9169H336.792Z" fill="#13110C"/>
<path d="M338.135 12.9169V10.7795H340.12V12.9169H338.135Z" fill="#13110C"/>
<path d="M346.595 4.49719C346.169 4.6048 343.582 5.5436 342.324 5.88498L342.091 5.94806L342.284 6.09649C342.944 6.60857 346.492 9.66247 346.599 10.4974C346.599 10.6272 346.128 12.3972 346.002 12.913H339.593L339.616 10.7757H345.107C345.107 10.7757 342.696 8.70511 342.18 8.48989L342.094 8.46762C342.094 8.46762 342.009 8.5975 341.838 8.83127C341.263 8.23385 340.451 7.3136 340.235 7.05756L340.94 4.40813L347.156 2.54907L346.599 4.49347L346.595 4.49719Z" fill="#13110C"/>
<path d="M354.585 12.917L353.816 12.9392C353.538 12.9392 353.241 12.8316 352.941 12.4494C352.748 13.9894 350.848 17.2548 349.052 17.2548C348.154 17.2548 344.844 15.7371 344.844 15.3549C344.844 14.8428 346.02 15.8447 347.004 15.8447C347.794 15.8447 348.455 15.5256 349.653 14.6276C350.358 14.071 351.831 12.7685 351.831 12.0227C351.831 11.6368 350.763 10.249 350.484 9.95212C350.677 9.65156 351.338 8.45671 351.594 8.05225C352.277 8.84262 353.026 10.787 354.265 10.787H354.841V12.9244H354.585V12.917Z" fill="#13110C"/>
<path d="M354.329 12.9169V10.7795H356.314V12.9169H354.329Z" fill="#13110C"/>
<path d="M361.294 12.9168C360.396 12.9168 359.776 12.9613 359.564 12.7015C359.349 12.4678 359.264 12.1672 359.264 12.1672L359.156 12.2934C358.878 12.6347 358.473 12.913 358.217 12.913H355.824V10.7757H358.878C359.542 10.7757 359.475 9.81461 359.475 9.62166C359.583 9.36562 360.436 8.4899 361.078 7.82568C361.078 8.08172 360.952 8.70141 360.759 9.28027C360.525 9.96304 360.332 10.3044 360.332 10.4751C360.332 10.7312 361.208 10.7757 361.294 10.7757C361.913 10.7757 361.423 10.7757 361.423 10.7757V12.913C361.423 12.913 361.872 12.913 361.294 12.913V12.9168Z" fill="#13110C"/>
<path d="M365.628 7.02053C365.372 7.02053 364.069 5.95186 363.939 5.95186C363.832 5.95186 363.257 6.69771 362.978 7.0428C362.507 6.84984 361.397 6.25242 361.182 6.0372C362.359 4.6494 361.995 5.07613 362.273 4.79783C362.678 5.07613 363.639 5.69582 363.876 5.69582C364.195 5.69582 364.711 4.9277 365.008 4.71248L366.633 5.69582C366.27 6.27097 365.628 7.02053 365.628 7.02053ZM367.594 11.5921C367.594 11.5921 367.145 12.5124 367.019 12.9391L364.136 12.9168C364.073 12.8315 363.88 12.3825 363.795 12.3825C363.731 12.3825 363.561 12.5977 363.368 12.8315C363.026 12.9614 361.297 12.9168 361.297 12.9168V10.7795C361.917 10.7795 363.561 10.7349 363.561 10.7349C363.561 10.7349 363.646 9.68852 363.795 9.49557C363.924 9.28035 364.863 8.30072 365.29 7.89255C365.097 8.64211 364.607 10.3268 364.756 10.7349V10.7795H366.592C366.592 10.7795 366.336 9.71079 366.314 9.41393C366.314 9.35085 367.297 8.0484 367.81 7.57714V10.0781C367.81 11.273 367.594 11.5958 367.594 11.5958V11.5921ZM363.769 5.01305C363.769 5.01305 362.381 4.05198 362.422 4.05198L363.661 3.02783L364.986 4.01116L363.769 5.01676V5.01305Z" fill="#13110C"/>
</svg>
